<svg width="56" height="56" viewBox="0 0 56 56" fill="none" xmlns="http://www.w3.org/2000/svg">
<g filter="url(#filter0_d_3611_312)">
<path d="M3.5 20.9222C3.5 14.8239 3.5 11.7747 4.68682 9.44544C5.73077 7.39656 7.39656 5.73077 9.44544 4.68682C11.7747 3.5 14.8239 3.5 20.9222 3.5H35.0778C41.1761 3.5 44.2253 3.5 46.5546 4.68682C48.6034 5.73077 50.2692 7.39656 51.3132 9.44544C52.5 11.7747 52.5 14.8239 52.5 20.9222V35.0778C52.5 41.1761 52.5 44.2253 51.3132 46.5546C50.2692 48.6034 48.6034 50.2692 46.5546 51.3132C44.2253 52.5 41.1761 52.5 35.0778 52.5H20.9222C14.8239 52.5 11.7747 52.5 9.44544 51.3132C7.39656 50.2692 5.73077 48.6034 4.68682 46.5546C3.5 44.2253 3.5 41.1761 3.5 35.0778V20.9222Z" fill="white"/>
<path d="M28.0036 21.7892L21.9471 11.1007C22.1482 10.8959 22.3795 10.7617 22.6109 10.6714C20.8248 11.2592 20.0053 13.2648 20.0053 13.2648L8.94094 32.7859C8.78526 33.3979 8.74201 33.9505 8.76147 34.4371H20.8378L28.0036 21.7892Z" fill="#34A853"/>
<path d="M28.0034 21.7892L35.1692 34.4371H47.2455C47.265 33.9505 47.2217 33.3979 47.066 32.7859L36.0016 13.2648C36.0016 13.2648 35.18 11.2592 33.3961 10.6714C33.6253 10.7617 33.8588 10.8959 34.0599 11.1007L28.0034 21.7892Z" fill="#FBBC05"/>
<path d="M28.0034 21.7895L34.0599 11.101C33.8588 10.8963 33.6253 10.762 33.3961 10.6717C33.1323 10.5858 32.8491 10.5286 32.542 10.5132H32.222H23.7848H23.4648C23.1599 10.5264 22.8745 10.5836 22.6107 10.6717C22.3815 10.762 22.1479 10.8963 21.9468 11.101L28.0034 21.7895Z" fill="#188038"/>
<path d="M20.8398 34.437L14.8524 45.0044C14.8524 45.0044 14.6535 44.9076 14.3832 44.7072C15.233 45.3611 16.0589 45.4998 16.0589 45.4998H39.5738C40.8711 45.4998 41.1414 45.0044 41.1414 45.0044C41.1457 45.0022 41.1479 45 41.1522 44.9978L35.1692 34.437H20.8398Z" fill="#4285F4"/>
<path d="M20.8402 34.437H8.76389C8.82443 35.8724 9.44717 36.7112 9.44717 36.7112L9.90125 37.4994C9.93368 37.5456 9.95314 37.572 9.95314 37.572L10.9413 39.3068L13.1598 43.1683C13.2247 43.3247 13.3004 43.4678 13.3804 43.6042C13.4106 43.6505 13.4387 43.7011 13.4712 43.7451C13.4798 43.7584 13.4885 43.7716 13.4971 43.7848C13.7717 44.1722 14.0788 44.4717 14.3858 44.7072C14.6561 44.9098 14.855 45.0044 14.855 45.0044L20.8402 34.437Z" fill="#1967D2"/>
<path d="M35.1692 34.437H47.2455C47.185 35.8724 46.5623 36.7112 46.5623 36.7112L46.1082 37.4994C46.0757 37.5456 46.0563 37.572 46.0563 37.572L45.0681 39.3068L42.8496 43.1683C42.7847 43.3247 42.7091 43.4678 42.6291 43.6042C42.5988 43.6505 42.5707 43.7011 42.5382 43.7451C42.5296 43.7584 42.5209 43.7716 42.5123 43.7848C42.2377 44.1722 41.9306 44.4717 41.6236 44.7072C41.3533 44.9098 41.1544 45.0044 41.1544 45.0044L35.1692 34.437Z" fill="#EA4335"/>
</g>
<defs>
<filter id="filter0_d_3611_312" x="-2" y="-1" width="60" height="60" filterUnits="userSpaceOnUse" color-interpolation-filters="sRGB">
<feFlood flood-opacity="0" result="BackgroundImageFix"/>
<feColorMatrix in="SourceAlpha" type="matrix" values="0 0 0 0 0 0 0 0 0 0 0 0 0 0 0 0 0 0 127 0" result="hardAlpha"/>
<feOffset dy="1"/>
<feGaussianBlur stdDeviation="1"/>
<feComposite in2="hardAlpha" operator="out"/>
<feColorMatrix type="matrix" values="0 0 0 0 0.0627451 0 0 0 0 0.0941176 0 0 0 0 0.156863 0 0 0 0.05 0"/>
<feBlend mode="normal" in2="BackgroundImageFix" result="effect1_dropShadow_3611_312"/>
<feBlend mode="normal" in="SourceGraphic" in2="effect1_dropShadow_3611_312" result="shape"/>
</filter>
</defs>
</svg>
