<svg width="56" height="56" viewBox="0 0 56 56" fill="none" xmlns="http://www.w3.org/2000/svg">
<path fill-rule="evenodd" clip-rule="evenodd" d="M10.003 51.1311L3.98411 43.633C2.53598 41.829 1.75 39.6106 1.75 37.3273V10.1762C1.75 6.75612 4.48628 3.9182 8.01625 3.67719L35.9312 1.77132C37.9592 1.63286 39.9749 2.17191 41.6408 3.29823L51.4487 9.92935C53.2043 11.1163 54.25 13.0567 54.25 15.1274V45.9956C54.25 49.3426 51.5595 52.1138 48.1033 52.3265L17.1208 54.2337C14.3628 54.4034 11.697 53.2414 10.003 51.1311Z" fill="white"/>
<path d="M19.6843 23.7629V23.4074C19.6843 22.5063 20.4059 21.759 21.336 21.6969L28.1109 21.2446L37.4799 35.0413V22.9324L35.0684 22.6109V22.4421C35.0684 21.5304 35.8066 20.7782 36.7485 20.7299L42.9129 20.4142V21.3013C42.9129 21.7177 42.6032 22.0739 42.1788 22.1457L40.6954 22.3966V42.0066L38.8336 42.6468C37.2783 43.1817 35.5468 42.6091 34.6564 41.2656L25.5607 27.5402V40.6403L28.3604 41.1761L28.3214 41.4358C28.1992 42.2492 27.4969 42.8644 26.6473 42.9022L19.6843 43.2121C19.5922 42.3374 20.2478 41.5549 21.1522 41.4599L22.0681 41.3636V23.8968L19.6843 23.7629Z" fill="black"/>
<path fill-rule="evenodd" clip-rule="evenodd" d="M36.1812 5.19199L8.2662 7.09786C6.5941 7.21202 5.29797 8.5563 5.29797 10.1764V37.3274C5.29797 38.8496 5.82196 40.3285 6.78738 41.5312L12.8063 49.0293C13.7794 50.2417 15.3109 50.9092 16.8952 50.8117L47.8777 48.9045C49.4657 48.8067 50.7019 47.5335 50.7019 45.9957V15.1276C50.7019 14.1762 50.2214 13.2846 49.4148 12.7393L39.6069 6.10814C38.6074 5.43234 37.398 5.10891 36.1812 5.19199ZM9.65044 10.5999C9.26219 10.3124 9.44697 9.71358 9.9347 9.6786L36.369 7.78256C37.2112 7.72215 38.0481 7.95408 38.7292 8.43666L44.0331 12.1943C44.2344 12.337 44.14 12.645 43.8907 12.6585L15.8969 14.181C15.0497 14.2271 14.2135 13.9782 13.5399 13.4795L9.65044 10.5999ZM14.5839 18.9539C14.5839 18.0444 15.3186 17.2932 16.2581 17.242L45.8555 15.6302C46.7711 15.5803 47.5419 16.2845 47.5419 17.1708V43.8993C47.5419 44.8071 46.8098 45.5576 45.8721 45.6109L16.4622 47.2843C15.4432 47.3423 14.5839 46.5593 14.5839 45.5727V18.9539Z" fill="black"/>
</svg>
