<svg width="56" height="56" viewBox="0 0 56 56" fill="none" xmlns="http://www.w3.org/2000/svg">
<path d="M46.3754 26.2497C48.7914 26.2497 50.75 24.2912 50.75 21.8751V21.8751C50.75 19.4591 48.7912 17.5005 46.3752 17.5005V17.5005C43.9589 17.5005 42 19.4592 42 21.8755V26.2497H46.3754ZM34.125 26.2497C36.5412 26.2497 38.5 24.291 38.5 21.8747V9.62548C38.5 7.20924 36.5412 5.25049 34.125 5.25049V5.25049C31.7088 5.25049 29.75 7.20924 29.75 9.62549V21.8747C29.75 24.291 31.7088 26.2497 34.125 26.2497V26.2497Z" fill="#2EB67D"/>
<path d="M9.62462 29.7503C7.20859 29.7503 5.25 31.7088 5.25 34.1249V34.1249C5.25 36.5409 7.20877 38.4995 9.62481 38.4995V38.4995C12.0411 38.4995 14 36.5408 14 34.1245V29.7503H9.62462ZM21.875 29.7503C19.4588 29.7503 17.5 31.709 17.5 34.1253V46.3745C17.5 48.7908 19.4588 50.7495 21.875 50.7495V50.7495C24.2912 50.7495 26.25 48.7908 26.25 46.3745V34.1253C26.25 31.709 24.2912 29.7503 21.875 29.7503V29.7503Z" fill="#E01E5A"/>
<path d="M29.7503 46.3754C29.7503 48.7914 31.7089 50.75 34.1249 50.75V50.75C36.541 50.75 38.4996 48.7912 38.4996 46.3752V46.3752C38.4996 43.9589 36.5408 42 34.1246 42L29.7503 42L29.7503 46.3754ZM29.7503 34.125C29.7503 36.5412 31.7091 38.5 34.1253 38.5L46.3746 38.5C48.7908 38.5 50.7496 36.5412 50.7496 34.125V34.125C50.7496 31.7088 48.7908 29.75 46.3746 29.75L34.1253 29.75C31.7091 29.75 29.7503 31.7088 29.7503 34.125V34.125Z" fill="#ECB22E"/>
<path d="M26.2496 9.62463C26.2496 7.20859 24.291 5.25 21.8749 5.25V5.25C19.4589 5.25 17.5003 7.20878 17.5003 9.62481V9.62481C17.5003 12.0411 19.4591 14 21.8753 14L26.2496 14L26.2496 9.62463ZM26.2496 21.875C26.2496 19.4588 24.2908 17.5 21.8746 17.5L9.62532 17.5C7.20907 17.5 5.25032 19.4588 5.25032 21.875V21.875C5.25032 24.2912 7.20907 26.25 9.62532 26.25L21.8746 26.25C24.2908 26.25 26.2496 24.2912 26.2496 21.875V21.875Z" fill="#36C5F0"/>
</svg>
